<?xml version="1.0" encoding="utf-8"?>
<!-- Generator: Adobe Illustrator 16.0.0, SVG Export Plug-In . SVG Version: 6.00 Build 0)  -->
<!DOCTYPE svg PUBLIC "-//W3C//DTD SVG 1.1//EN" "http://www.w3.org/Graphics/SVG/1.1/DTD/svg11.dtd">
<svg version="1.1" id="Capa_1" xmlns="http://www.w3.org/2000/svg" xmlns:xlink="http://www.w3.org/1999/xlink" x="0px" y="0px"
	 width="512px" height="512px" viewBox="0 0 512 512" enable-background="new 0 0 512 512" xml:space="preserve">
<g>
	<path fill="#F26722" d="M425.972,310.473h-15.35c-4.238,0-7.676,3.435-7.676,7.674c0,4.237,3.438,7.674,7.676,7.674h15.35
		c4.237,0,7.674-3.437,7.674-7.674C433.646,313.907,430.209,310.473,425.972,310.473z"/>
	<path fill="#F26722" d="M333.879,387.213H180.4c-12.694,0-23.022,10.329-23.022,23.022s10.33,23.022,23.022,23.022h153.479
		c12.694,0,23.022-10.329,23.022-23.022C356.901,397.54,346.574,387.213,333.879,387.213z M333.879,417.909H180.4
		c-4.231,0-7.674-3.441-7.674-7.674s3.443-7.675,7.674-7.675h153.479c4.231,0,7.674,3.442,7.674,7.675
		S338.111,417.909,333.879,417.909z"/>
	<path fill="#F26722" d="M95.985,264.428c4.238,0,7.674-3.438,7.674-7.675V126.295h306.963v130.458c0,4.237,3.436,7.675,7.674,7.675
		c4.236,0,7.674-3.438,7.674-7.675V126.295c0-8.464-6.886-15.349-15.348-15.349V95.598c0-8.462-6.885-15.348-15.35-15.348V64.902
		c0-8.463-6.886-15.348-15.348-15.348V34.207c0-8.463-6.887-15.348-15.348-15.348H149.702c-8.463,0-15.348,6.886-15.348,15.348
		v15.348c-8.463,0-15.348,6.886-15.348,15.348V80.25c-8.464,0-15.348,6.886-15.348,15.348v15.347
		c-8.464,0-15.348,6.886-15.348,15.348v130.459C88.311,260.991,91.747,264.428,95.985,264.428z M149.702,34.206h214.875v15.348
		H149.702V34.206z M134.355,64.902h245.57V80.25h-245.57V64.902L134.355,64.902z M119.007,95.598h276.266v15.347H119.007V95.598z"/>
	<path fill="#F26722" d="M502.606,300.632c-0.171-1.832-0.563-3.602-1.138-5.283l-29.589-134.524
		c-1.878-11.131-11.385-19.182-22.699-19.182h-0.189c-4.239,0-7.674,3.437-7.674,7.674c0,4.239,3.435,7.674,7.674,7.674h0.189
		c3.798,0,6.985,2.726,7.578,6.478c0.024,0.153,0.055,0.302,0.086,0.452l25.516,116.017c-0.878-0.103-1.769-0.159-2.672-0.159
		H34.592c-0.904,0-1.796,0.058-2.674,0.159L57.433,163.92c0.033-0.15,0.061-0.299,0.085-0.452c0.595-3.751,3.782-6.478,7.581-6.478
		h0.189c4.238,0,7.674-3.435,7.674-7.674c0-4.237-3.437-7.674-7.674-7.674h-0.189c-11.315,0-20.821,8.053-22.7,19.182
		L12.814,295.349c-0.578,1.682-0.967,3.451-1.138,5.283c-0.085,0.524-0.114,1.049-0.091,1.563c-0.004,0.201-0.016,0.401-0.016,0.604
		v30.696v153.481c0,12.695,10.328,23.022,23.022,23.022h445.096c12.694,0,23.021-10.327,23.021-23.022V333.494v-30.696
		c0-0.202-0.01-0.402-0.016-0.604C502.718,301.681,502.688,301.158,502.606,300.632z M487.362,486.976
		c0,4.231-3.442,7.674-7.674,7.674H34.592c-4.231,0-7.674-3.442-7.674-7.674V333.494c0-4.231,3.443-7.674,7.674-7.674h345.333
		c4.236,0,7.674-3.437,7.674-7.674c0-4.239-3.438-7.674-7.674-7.674H34.592c-2.69,0-5.272,0.467-7.674,1.32v-8.994
		c0-0.056,0.006-0.107,0.008-0.162l0.643-2.917c1.189-2.701,3.888-4.593,7.024-4.593h445.095c3.136,0,5.836,1.893,7.025,4.593
		l0.641,2.917c0.002,0.055,0.011,0.106,0.011,0.162v8.994c-2.404-0.854-4.986-1.32-7.677-1.32h-23.021
		c-4.236,0-7.674,3.435-7.674,7.674c0,4.237,3.438,7.674,7.674,7.674h23.021c4.232,0,7.677,3.442,7.677,7.674v153.481H487.362z"/>
	<path fill="#F26722" d="M234.118,203.035c4.238,0,7.674-3.436,7.674-7.674s-3.436-7.674-7.674-7.674h-61.393
		c-4.239,0-7.675,3.436-7.675,7.674s3.437,7.674,7.675,7.674H234.118z"/>
	<path fill="#F26722" d="M287.836,164.664c0-4.236-3.436-7.673-7.675-7.673H172.726c-4.239,0-7.675,3.437-7.675,7.673
		c0,4.239,3.437,7.674,7.675,7.674h107.436C284.401,172.337,287.836,168.903,287.836,164.664z"/>
	<path fill="#F26722" d="M134.355,172.337h7.674c4.238,0,7.674-3.435,7.674-7.674c0-4.236-3.436-7.673-7.674-7.673h-7.674
		c-4.237,0-7.674,3.437-7.674,7.673C126.681,168.903,130.117,172.337,134.355,172.337z"/>
	<path fill="#F26722" d="M134.355,203.035h7.674c4.238,0,7.674-3.436,7.674-7.674s-3.436-7.674-7.674-7.674h-7.674
		c-4.237,0-7.674,3.436-7.674,7.674S130.117,203.035,134.355,203.035z"/>
	<path fill="#F26722" d="M134.355,249.08c-4.237,0-7.674,3.436-7.674,7.673c0,4.237,3.437,7.675,7.674,7.675h69.067
		c4.238,0,7.674-3.438,7.674-7.675c0-4.238-3.436-7.673-7.674-7.673H134.355z"/>
	<path fill="#F26722" d="M264.814,226.058c0-4.238-3.435-7.674-7.674-7.674H134.355c-4.237,0-7.674,3.436-7.674,7.674
		s3.437,7.674,7.674,7.674H257.14C261.379,233.731,264.814,230.295,264.814,226.058z"/>
	<path fill="#F26722" d="M379.925,218.384h-38.372c-4.236,0-7.674,3.436-7.674,7.674s3.438,7.674,7.674,7.674h38.372
		c4.239,0,7.674-3.436,7.674-7.674S384.164,218.384,379.925,218.384z"/>
	<path fill="#F26722" d="M287.836,264.428h92.089c4.239,0,7.674-3.438,7.674-7.675c0-4.238-3.435-7.673-7.674-7.673h-92.089
		c-4.237,0-7.675,3.436-7.675,7.673C280.161,260.991,283.599,264.428,287.836,264.428z"/>
</g>
</svg>
